<?xml version="1.0" standalone="no"?><!DOCTYPE svg PUBLIC "-//W3C//DTD SVG 1.1//EN" "http://www.w3.org/Graphics/SVG/1.1/DTD/svg11.dtd"><svg t="1546504165726" class="icon" style="" viewBox="0 0 1024 1024" version="1.1" xmlns="http://www.w3.org/2000/svg" p-id="7596" xmlns:xlink="http://www.w3.org/1999/xlink" width="128" height="128"><defs><style type="text/css"></style></defs><path d="M 883.2 886.6 H 143.6 c -29.1 0 -52.8 -23.1 -52.8 -51.6 V 212.4 c 0 -28.5 23.7 -51.6 52.8 -51.6 h 218.5 c 12.1 0 23.8 4 33.2 11.4 l 116.1 91.6 h 371.8 c 29.1 0 52.8 23.1 52.8 51.6 v 519.4 c 0.1 28.7 -23.6 51.8 -52.8 51.8 Z m 0 -51.6 v 25.8 V 835 Z M 367.1 228.1 H 156 v 597.4 h 714.9 l 0.1 -497.7 H 511.6 c -11.6 0 -23 -3.9 -32.2 -11.1 c 0 -0.1 -112.3 -88.6 -112.3 -88.6 Z m 6.2 213 h 421 c 0.5 0 0.8 0.3 0.8 0.7 v 62.5 c 0 0.4 -0.3 0.7 -0.8 0.7 h -421 c -0.5 0 -0.8 -0.3 -0.8 -0.7 v -62.5 c 0 -0.4 0.4 -0.7 0.8 -0.7 Z" p-id="7597"></path></svg>