<?xml version="1.0" standalone="no"?><!DOCTYPE svg PUBLIC "-//W3C//DTD SVG 1.1//EN" "http://www.w3.org/Graphics/SVG/1.1/DTD/svg11.dtd"><svg t="1546069600941" class="icon" style="" viewBox="0 0 1024 1024" version="1.1" xmlns="http://www.w3.org/2000/svg" p-id="4405" xmlns:xlink="http://www.w3.org/1999/xlink" width="128" height="128"><defs><style type="text/css"></style></defs><path d="M868.928 511.488c26.496 30.464 26.816 60.096 0.832 88.896l-274.24 275.968a55.68 55.68 0 0 1-40.64 12.672c-15.232-1.152-27.072-5.952-35.584-14.4a54652.928 54652.928 0 0 1-182.848-183.68L268.736 623.232c-22.016-22.016-41.6-41.792-58.816-59.264s-31.36-31.744-42.368-42.752a245.76 245.76 0 0 1-17.344-18.176c-1.664-2.304-4.672-6.336-8.896-12.288a36.224 36.224 0 0 1-6.336-21.568v-50.816c0-12.992 0.128-27.648 0.448-44.032 0.256-16.384 0.448-33.024 0.448-49.92l1.664-132.096c0.576 0 0.832-0.256 0.832-0.832 1.152-7.296 2.368-14.4 3.776-21.12a39.68 39.68 0 0 1 11.456-19.52 43.2 43.2 0 0 1 19.456-12.672c7.36-2.24 14.08-3.392 20.288-3.392h279.36c1.152 0 3.648 0.128 7.616 0.448a35.52 35.52 0 0 1 8.448 1.28c6.784 2.816 12.992 6.464 18.624 11.008l361.536 363.968zM263.68 316.8a52.224 52.224 0 0 0 38.912-16.512 54.336 54.336 0 0 0 16.064-39.36 53.056 53.056 0 0 0-16.064-38.912 52.864 52.864 0 0 0-38.912-16.128 53.056 53.056 0 0 0-38.912 16.064 53.12 53.12 0 0 0-16.128 38.976c0 15.232 5.376 28.352 16.064 39.36a52.48 52.48 0 0 0 38.976 16.512z" fill="#ffffff" p-id="4406"></path></svg>